<?xml version="1.0" standalone="no"?>
<!DOCTYPE svg PUBLIC "-//W3C//DTD SVG 20010904//EN"
 "http://www.w3.org/TR/2001/REC-SVG-20010904/DTD/svg10.dtd">
<svg version="1.0" xmlns="http://www.w3.org/2000/svg"
 width="1472.000000pt" height="832.000000pt" viewBox="0 0 1472.000000 832.000000"
 preserveAspectRatio="xMidYMid meet">

<g transform="translate(0.000000,832.000000) scale(0.100000,-0.100000)"
fill="#000000" stroke="none">
<path d="M7406 6129 c-507 -70 -925 -434 -1052 -916 -31 -121 -43 -324 -25
-457 32 -238 149 -480 319 -658 l74 -77 -123 -3 -124 -3 0 -50 0 -50 473 -3
472 -2 0 100 0 100 -67 32 c-85 42 -175 128 -208 200 -36 80 -45 142 -45 323
l0 162 -67 5 c-113 8 -202 67 -241 158 -8 19 -15 65 -15 101 0 194 163 322
390 306 l81 -6 19 52 c26 74 109 157 188 186 123 46 313 14 398 -67 39 -37 73
-97 87 -154 l12 -47 82 6 c213 15 356 -102 356 -291 0 -151 -120 -266 -277
-266 l-53 0 0 -147 c0 -82 -5 -177 -11 -213 -21 -130 -114 -248 -247 -311
l-63 -30 3 -97 3 -97 450 -3 c248 -1 460 0 473 3 18 4 22 12 22 44 0 21 -6 43
-13 49 -7 6 -63 13 -125 14 l-111 3 75 85 c219 248 327 546 310 855 -16 308
-117 545 -333 784 -158 175 -422 317 -682 367 -95 18 -316 26 -405 13z"/>
<path d="M7480 4817 c0 -250 -2 -275 -18 -290 -24 -21 -61 -11 -73 20 -5 13
-9 134 -9 269 0 276 6 261 -84 218 -93 -44 -88 -24 -84 -336 l3 -275 36 -59
c42 -69 104 -116 187 -141 31 -9 63 -21 70 -26 9 -7 12 -100 12 -404 0 -365 1
-394 17 -400 27 -10 82 -8 93 3 7 7 11 129 10 357 0 367 5 457 25 457 7 0 42
9 77 20 79 24 148 81 186 154 l27 51 3 261 3 261 -33 28 c-34 29 -123 75 -145
75 -10 0 -13 -60 -13 -265 0 -251 -1 -265 -19 -275 -24 -12 -32 -12 -51 0 -13
8 -16 55 -20 287 l-5 278 -97 3 -98 3 0 -274z"/>
<path d="M6492 3548 c-9 -9 -12 -149 -12 -569 0 -494 2 -559 16 -573 11 -12
35 -16 85 -16 106 0 109 3 109 111 l0 90 48 55 c26 29 52 54 57 54 6 0 72 -67
145 -150 149 -165 150 -166 262 -158 44 3 64 10 74 23 30 41 26 47 -188 280
-71 76 -128 142 -128 146 0 4 76 86 170 183 99 102 172 187 176 203 4 16 2 37
-7 52 -13 23 -22 26 -79 29 -69 3 -113 -10 -134 -40 -7 -10 -98 -105 -202
-210 l-189 -193 -5 331 c-4 260 -8 334 -19 347 -17 21 -160 24 -179 5z"/>
<path d="M8411 3546 c-14 -16 -11 -1129 2 -1143 13 -13 152 -16 175 -4 20 11
22 21 24 169 l3 157 185 0 185 0 3 -155 c2 -131 5 -157 19 -167 22 -17 155
-17 171 -1 19 19 17 871 -2 887 -9 8 -45 11 -98 9 l-83 -3 -3 -177 -2 -178
-190 0 -190 0 0 298 c0 218 -3 301 -12 310 -18 18 -172 16 -187 -2z"/>
<path d="M11200 3357 c-51 -18 -83 -70 -77 -127 4 -35 13 -51 42 -78 34 -31
41 -34 86 -30 60 6 95 35 110 91 15 56 -17 119 -72 141 -46 19 -44 18 -89 3z
m115 -42 c43 -42 32 -123 -20 -155 -48 -30 -81 -26 -121 14 -44 44 -47 100 -8
140 37 36 114 37 149 1z"/>
<path d="M11189 3306 c-8 -8 3 -126 12 -126 5 0 9 11 9 25 0 32 11 32 50 -1
34 -29 48 -28 26 1 -12 16 -12 22 1 41 24 37 2 64 -51 64 -23 0 -45 -2 -47 -4z
m78 -32 c3 -8 1 -20 -4 -25 -14 -14 -43 0 -43 22 0 24 38 26 47 3z"/>
<path d="M3860 3287 c-113 -38 -209 -123 -263 -232 -39 -77 -50 -136 -45 -234
5 -75 11 -100 42 -165 60 -125 169 -220 288 -252 77 -20 214 -18 287 5 70 22
157 83 184 130 l18 31 -47 50 c-59 64 -76 68 -120 35 -98 -75 -213 -89 -312
-39 -99 51 -149 143 -139 255 9 108 82 195 186 226 78 22 147 13 228 -32 54
-30 71 -35 88 -27 31 14 95 95 95 119 0 20 -32 54 -85 91 -95 64 -279 82 -405
39z"/>
<path d="M4766 3299 c-117 -29 -243 -137 -298 -256 -41 -87 -51 -218 -23 -319
34 -125 131 -240 253 -297 63 -30 74 -32 182 -32 109 0 119 2 183 32 166 79
276 247 277 423 1 173 -103 336 -266 416 -67 34 -83 37 -172 40 -53 2 -114 -1
-136 -7z m227 -213 c44 -19 106 -81 128 -130 28 -63 25 -159 -7 -224 -77 -155
-286 -190 -412 -69 -143 137 -83 380 106 434 53 14 137 10 185 -11z"/>
<path d="M5746 3289 c-279 -96 -394 -440 -232 -693 85 -133 221 -206 382 -206
334 0 552 355 406 663 -55 116 -159 205 -281 241 -77 23 -201 20 -275 -5z
m230 -194 c204 -61 245 -345 66 -463 -50 -33 -63 -37 -133 -41 -93 -4 -147 18
-209 85 -56 60 -77 135 -62 215 30 162 179 252 338 204z"/>
<path d="M7778 3291 c-72 -23 -120 -53 -186 -115 -150 -141 -185 -365 -85
-548 38 -70 139 -163 220 -201 65 -31 73 -32 193 -32 119 0 128 1 191 31 67
32 159 109 159 134 0 18 -105 120 -123 120 -8 0 -32 -14 -53 -31 -57 -46 -95
-59 -174 -59 -87 0 -150 29 -204 92 -160 186 7 461 257 424 25 -4 70 -22 102
-41 32 -19 63 -35 69 -35 25 0 116 109 116 139 0 22 -123 101 -187 121 -84 26
-215 26 -295 1z"/>
<path d="M9392 3288 c-9 -9 -12 -121 -12 -445 0 -422 0 -433 20 -443 14 -7
130 -10 355 -8 285 3 337 5 345 18 13 19 13 151 0 170 -7 11 -30 15 -92 16
-46 0 -159 1 -251 2 l-168 2 3 63 3 62 215 5 215 5 3 88 c2 57 -1 94 -9 103
-9 11 -53 14 -220 14 l-209 0 0 80 0 80 249 0 c218 0 250 2 255 16 11 29 6
160 -6 172 -17 17 -679 17 -696 0z"/>
<path d="M10297 3293 c-4 -3 -7 -203 -7 -444 0 -423 1 -439 19 -449 24 -13
141 -13 161 0 12 7 16 42 20 167 l5 158 255 3 c225 2 256 4 268 19 16 22 16
165 0 181 -9 9 -81 12 -264 12 -286 0 -264 -7 -264 90 l0 58 73 7 c39 4 152 5
250 3 210 -4 207 -5 207 100 0 111 31 102 -369 102 -191 0 -351 -3 -354 -7z"/>
</g>
</svg>
